<svg xmlns="http://www.w3.org/2000/svg" viewBox="-1.9 7.2 120 60" width="120" height="60" fill="#1cb3de"><path d="M43.992 30.82c-.063-.136-.084-.345-.314-.335-.178.01-.2.188-.25.314l-1.404 2.953L38.6 41c1.13.105 1.13.105 1.56-.816l.983-2.126c.157-.366.345-.523.774-.523h3.467c.44-.01.65.136.837.523l1.255 2.68c.105.23.868.418 1.088.262.23-.146.02-.293-.03-.418l-4.566-9.78zm-2.094 5.698l1.8-3.822 1.8 3.822h-3.603zm19.418-2.002l.01-.9c.042-.418-.188-.418-.492-.418-.262.01-.523-.073-.523.377v9.97c0 .272.084.335.345.356.492.042.7-.073.67-.628l-.01-3.498c2.22 2.2 4.67 1.54 5.886.335 1.697-1.686 1.707-4.17.073-5.886-1.592-1.665-3.843-1.582-5.96.262zm3.07 5.782c-1.812.01-3.1-1.297-3.132-3.184a3.08 3.08 0 0 1 3.037-3.1c1.76-.02 3.143 1.352 3.153 3.122 0 1.728-1.362 3.143-3.06 3.153zM51.27 34.516l.01-.9c.042-.418-.188-.418-.48-.418-.262.01-.523-.073-.523.377v9.96c0 .262.073.345.345.366.47.03.7-.052.67-.628l-.01-3.488c2.084 1.8 4.42 1.875 5.928.282 1.655-1.75 1.644-4.2-.01-5.886-1.592-1.634-3.875-1.53-5.928.314zm6.106 2.733c-.042 1.74-1.446 3.1-3.153 3.06-1.8-.042-3.08-1.425-3.037-3.28a3.1 3.1 0 0 1 3.153-2.995 3.05 3.05 0 0 1 3.037 3.216zm27.818-4.17c-1.958-.356-3.634.502-4.493 2.284-.94 1.927-.178 4.388 1.665 5.373 1.582.837 4.252.732 5.5-1.383.105-.178.418-.398.01-.586-.282-.136-.575-.48-.837.052-.126.25-.345.47-.554.66-.858.792-2.087 1.04-3.184.638-1.12-.366-1.686-1.255-1.937-2.378-.105-.45.052-.575.492-.554l6.075.02c.44.01.523-.146.46-.544-.2-1.8-1.53-3.28-3.195-3.582zm1.634 3.28l-2.472-.01c-.837 0-1.644-.01-2.472.01-.356.01-.492-.063-.345-.44.418-1.13 1.54-1.937 2.754-1.937 1.3 0 2.4.732 2.86 1.875.136.356.105.523-.314.502zm15.092-3.3c-2.378.02-4.17 1.812-4.148 4.148a4.09 4.09 0 0 0 4.116 4.054c2.315-.01 4.096-1.854 4.075-4.22-.03-2.2-1.854-4-4.043-3.98zm-.03 7.237c-1.8.01-3.1-1.352-3.08-3.216a3.11 3.11 0 0 1 3.048-3.026c1.665 0 3.08 1.393 3.08 3.06 0 1.833-1.287 3.184-3.047 3.184zm-24.33-8.932L74.9 37.47l-.523 1.15-.282-.586-2.86-6.62c-.418-.962-.418-.962-1.53-.9l4.315 10.034c.073.178.073.46.314.47.262.01.262-.282.335-.46l4.2-9.624c.063-.136.2-.262.105-.45-1.025-.042-1.025-.042-1.425.868zm19.095 1.883c-.366-.063-.837-.2-1.046.398l-1.446 3.34-.983 2.22-2.315-5.174c-.272-.628-.565-1.046-1.383-.753l.272.67 2.713 6.022a.92.92 0 0 1 0 .859l-1.3 2.985c.7.2 1.13.084 1.372-.628.25-.774.628-1.52.973-2.273l3.132-7.185c.073-.126.356-.418.03-.47zm14.138-.157a1.83 1.83 0 0 0-1.508.398l-.837.764v-.48c.063-.418-.073-.565-.523-.575-.492-.01-.523.2-.502.586v6.756c0 .398.105.523.523.523.45.01.523-.146.523-.565 0-1.582-.126-3.184.188-4.755.2-1.13.9-1.697 2-1.665.48.02.554-.418.628-.7.073-.24-.314-.262-.502-.293zM10.046 48.383c2.462 2.036 5.653 3.288 9.23 3.356a14.33 14.33 0 0 0 10.055-3.81 14.4 14.4 0 0 0 2.682-3.343c1.197-2.05 1.912-4.457 1.995-7.056.234-6.795-4.415-12.7-10.908-14.388-1.114-.3-2.283-.454-3.48-.48a14.69 14.69 0 0 0-1.76.07c-7.03.702-12.6 6.396-12.944 13.714-.18 3.783 1.004 7.235 3.122 9.9.605.757 1.28 1.43 2.008 2.05zM7.46 41.808c-.124-.1-.193-.138-.22-.193-1.032-3-1.032-3.012 1.417-4.924l6.506-5.048c.977-.743 2.077-1.224 3.22-1.43 1.472-.26 2.97-.083 4.292.536a6.23 6.23 0 0 1 1.54 1.032c2.2 1.98 2.93 4.897 1.94 7.58-.165.454-.385.894-.647 1.32a1.51 1.51 0 0 1-.138.206L23.7 43.4l-4.36 6.286c-.248.358-.5.5-.95.468-1.018-.083-2.008-.26-2.902-.605l4.883-5.282c-2.1.3-4.113-.15-5.8-1.678-.3-.26-.564-.55-.798-.84-1.128-1.403-1.582-3.1-1.472-5.213-.124.138-.234.26-.358.385L7.46 41.808zm11.94.042c.647 0 1.28-.165 1.87-.44 1-.468 1.83-1.28 2.338-2.256a4.48 4.48 0 0 0 .51-1.98 4.56 4.56 0 0 0-4.553-4.581c-.853 0-1.664.248-2.366.674-1.403.84-2.366 2.366-2.366 4.058a4.41 4.41 0 0 0 .206 1.362c.536 1.87 2.256 3.177 4.36 3.164z"/></svg>