<svg width="130" height="107" viewBox="0 0 130 107" fill="none" xmlns="http://www.w3.org/2000/svg">
<path fill-rule="evenodd" clip-rule="evenodd" d="M64.4868 25.9411C59.9869 25.9411 56.3374 29.57 56.3374 34.0462C56.3374 38.5224 59.9869 42.154 64.4868 42.154C68.9867 42.154 72.6348 38.5224 72.6348 34.0462C72.6348 29.5714 68.9867 25.9411 64.4868 25.9411ZM31.33 25.6097C35.1041 10.8894 48.5103 0 64.4882 0C83.3883 0 98.7134 15.243 98.712 34.0462C98.712 52.8467 83.3869 68.091 64.4868 68.091C48.5076 68.091 35.1 57.1976 31.3273 42.4759C31.3043 42.3695 31.2867 42.2631 31.2867 42.1526C31.2867 41.2541 32.0166 40.5308 32.9171 40.5308H46.712C47.3688 40.5308 47.9308 40.9201 48.1908 41.4778L48.1935 41.4737C51.0277 47.6135 57.2528 51.8795 64.4882 51.8795C74.3871 51.8795 82.416 43.893 82.416 34.0448C82.416 24.1967 74.3871 16.2102 64.4882 16.2102C57.2528 16.2102 51.0277 20.4762 48.1935 26.6133H48.1908C47.9308 27.1696 47.3688 27.5602 46.712 27.5602H32.9171C32.0166 27.5602 31.2867 26.8355 31.2867 25.9398C31.2867 25.8253 31.3043 25.7175 31.33 25.6097ZM18.3219 100.076H20.8068C21.1033 100.076 21.3444 100.313 21.3444 100.608C21.3444 100.696 21.3214 100.775 21.2861 100.848C19.435 104.496 15.6339 107 11.245 107C5.03479 107 0 101.992 0 95.8156C0 89.6381 5.03479 84.6312 11.2436 84.6298C15.6325 84.6298 19.4336 87.1339 21.2848 90.7817C21.32 90.8544 21.343 90.9353 21.343 91.0215C21.343 91.3151 21.1033 91.5535 20.8068 91.5535H18.3219C18.1485 91.5535 17.9955 91.4727 17.898 91.3448C16.4545 89.2232 14.0143 87.8263 11.2436 87.8263C6.8074 87.8263 3.21208 91.4013 3.21208 95.8142C3.21208 100.227 6.8074 103.803 11.2436 103.803C14.0129 103.803 16.4545 102.408 17.8967 100.285C17.9955 100.158 18.1472 100.076 18.3219 100.076ZM26.1625 83.0349C27.346 83.0349 28.3034 82.0799 28.3034 80.9039C28.3034 79.7266 27.3447 78.7729 26.1625 78.7729C24.9803 78.7729 24.0216 79.728 24.0216 80.9039C24.0216 82.0812 24.9803 83.0349 26.1625 83.0349ZM27.7672 85.1632V105.934C27.7672 106.228 27.5275 106.467 27.2323 106.467H25.0914C24.7961 106.467 24.5551 106.228 24.5551 105.934V85.1632H27.7672ZM34.1927 88.6884C35.8692 86.3365 38.4556 84.7968 41.6961 84.6446C41.9886 84.65 42.2243 84.8857 42.2243 85.1767V87.3117C42.2243 87.6067 41.9846 87.8452 41.688 87.8452C37.5023 88.12 34.1927 91.5832 34.1927 95.8156V105.934C34.1927 106.228 33.953 106.467 33.6578 106.467H31.5169C31.2217 106.467 30.982 106.228 30.982 105.934V85.6953C30.982 85.4017 31.2203 85.1632 31.5169 85.1632H33.6578C33.953 85.1632 34.1927 85.403 34.1927 85.6953V88.6884ZM60.5448 100.076H63.0297C63.3263 100.076 63.5659 100.313 63.5659 100.607C63.5659 100.694 63.5429 100.774 63.5064 100.847C61.6566 104.494 57.8554 106.999 53.4679 106.999C47.2577 106.999 42.2243 101.99 42.2243 95.8142C42.2243 89.6367 47.2577 84.6298 53.4679 84.6298C57.8554 84.6298 61.6566 87.1339 63.5064 90.7817C63.5443 90.8544 63.5659 90.9353 63.5659 91.0215C63.5659 91.3151 63.3263 91.5535 63.0297 91.5535H60.5448C60.3728 91.5535 60.2198 91.4727 60.1223 91.3448C58.6788 89.2232 56.2372 87.8263 53.4679 87.8263C49.0317 87.8263 45.4364 91.4013 45.4364 95.8142C45.4364 100.227 49.0303 103.803 53.4679 103.803C56.2372 103.803 58.6788 102.408 60.1223 100.285C60.2184 100.158 60.3715 100.076 60.5448 100.076ZM67.3143 78.2409H69.4552C69.7504 78.2409 69.9915 78.4793 69.9915 78.7729V105.934C69.9915 106.228 69.7504 106.467 69.4552 106.467H67.3143C67.0177 106.467 66.7794 106.228 66.7794 105.934V78.7729C66.7794 78.4793 67.0177 78.2409 67.3143 78.2409ZM73.2022 95.8156C73.2022 89.6381 78.237 84.6312 84.4472 84.6312C90.656 84.6312 95.6895 89.6381 95.6895 95.8169C95.6895 96.0041 95.6841 96.1914 95.6746 96.3759C95.6597 96.6561 95.4268 96.8811 95.1397 96.8811H76.4888C77.0128 100.789 80.3739 103.805 84.4472 103.805C87.2124 103.805 89.6485 102.413 91.0948 100.296C91.1909 100.162 91.348 100.076 91.5254 100.076H94.0103C94.3055 100.076 94.5452 100.313 94.5452 100.608C94.5452 100.696 94.5235 100.775 94.487 100.848C92.6358 104.496 88.8374 107 84.4472 107C78.237 107 73.2022 101.992 73.2022 95.8156ZM84.4472 87.8277C80.7544 87.8277 77.6439 90.3089 76.7054 93.6859H92.1863C91.2478 90.3089 88.14 87.8277 84.4472 87.8277ZM123.576 80.9039C123.576 79.1393 125.014 77.7088 126.788 77.7088C128.563 77.7088 130 79.1393 130 80.9039C130 82.6685 128.563 84.0991 126.788 84.0991C125.014 84.0991 123.576 82.6685 123.576 80.9039ZM129.465 105.936V85.1646H124.111V105.936C124.111 106.229 124.352 106.468 124.647 106.468H128.93C129.225 106.468 129.465 106.229 129.465 105.936ZM121.037 98.5864C119.796 103.422 115.393 107 110.145 107C103.938 107 98.9016 101.993 98.9029 95.8169C98.9029 89.6408 103.94 84.6325 110.148 84.6325C115.395 84.6325 119.8 88.2116 121.039 93.0474C121.046 93.0824 121.053 93.1174 121.053 93.1538C121.053 93.4475 120.812 93.6859 120.518 93.6859H115.984C115.769 93.6859 115.584 93.5579 115.5 93.3747L115.498 93.3761C114.567 91.3596 112.523 89.9587 110.147 89.9587C106.894 89.9587 104.256 92.5813 104.256 95.8169C104.256 99.0525 106.895 101.675 110.147 101.675C112.522 101.675 114.567 100.274 115.498 98.2577H115.5C115.584 98.0732 115.769 97.9465 115.984 97.9465H120.515C120.811 97.9465 121.05 98.185 121.05 98.4786C121.05 98.515 121.044 98.5514 121.037 98.5864Z" fill="#161616"/>
</svg>
