<svg xmlns="http://www.w3.org/2000/svg" width="120" height="60"><path d="M39.337 30.257c-1.56 0-1.863-1.132-1.863-2.945 0-2.215.856-3.07 1.938-3.07 1.208 0 1.837.78 1.837 2.618 0 2.2-.58 3.398-1.912 3.398zm-1.007 4.908c.15.025.302.05.478.05 2.215.15 2.87.478 2.87 1.6 0 .88-.78 1.937-2.567 1.937-1.7 0-2.114-.63-2.114-1.434s.604-1.636 1.334-2.165zm2.417-12.233a4.99 4.99 0 0 0-1.259-.201c-2.466 0-4.178 1.384-4.178 4.732 0 1.6.378 2.995 1.535 3.75-.73.604-1.56 1.636-1.586 2.3s.554 1.107 1.5 1.385c-1.057.704-1.888 1.7-1.888 2.92 0 1.3.655 2.87 4.052 2.87 3.347 0 4.807-1.964 4.807-4.128 0-1.988-1.5-2.718-3.12-2.944-1.888-.252-3.172-.327-3.172-.755 0-.353.327-.78.654-1.133.328.075.705.1 1.133.1 2.92 0 4.077-1.737 4.077-4.404 0-1.26-.378-2.215-.982-2.844.353.076.655.126.93.126.428 0 .705-.252.705-.805 0-.453-.1-.78-.2-.957h-3.02zM25.827 20.6a1.98 1.98 0 0 0-2.757.471c-.775 1.095-1.632 1.907-2.608 2.468l-.273.15-.258.126c-.9.422-1.926.644-3.1.68-1.173-.035-2.2-.257-3.1-.68-1.2-.556-2.227-1.453-3.14-2.743a1.98 1.98 0 0 0-2.756-.471 1.98 1.98 0 0 0-.472 2.756c1.304 1.842 2.887 3.204 4.706 4.046a11 11 0 0 0 1.095.437c-1.545 1.116-3.215 2.68-4.015 4.822-.83 2.224-.82 4.633.03 6.782.815 2.062 2.322 3.738 4.246 4.722 2.143 1.096 4.87 1.098 7.297.005 2.546-1.146 4.207-3.244 4.443-5.614.248-2.494-.948-4.715-3.047-5.657-2.174-.976-4.627-.28-6.248 1.775a1.98 1.98 0 0 0 .327 2.778 1.98 1.98 0 0 0 2.778-.327c.482-.6 1.037-.835 1.523-.617.414.186.824.72.73 1.658-.093.93-.9 1.85-2.13 2.398-1.32.594-2.806.625-3.874.08S13.317 39.167 12.857 38c-.346-.875-.627-2.27-.002-3.945.47-1.256 1.65-2.44 3.72-3.728l2.73-1.55 2.92-1.684c1.555-.85 2.923-2.102 4.074-3.728a1.98 1.98 0 0 0-.472-2.756zM50.96 33.958c-.226.25-.856.403-1.36.403-.98 0-1.6-.1-1.6-2.266 0-2.215.855-2.567 1.863-2.567.352 0 .856.05 1.183.227l-.076 4.203zm-.453-11.226c-2.34 0-4.028.327-4.405.604-.176.126-.226.377-.226.655 0 .176.025.88.277 1.3.78-.353 2.416-.58 3.55-.58.78 0 1.334.302 1.334 1.485v2.114c-.504-.25-1.284-.327-1.913-.327-1.6 0-3.272.63-3.272 4.128 0 3.826 1.762 3.977 3.6 3.95 1.636 0 2.82-.403 3.5-.83l.15-7.98V25.8c0-2.265-.956-3.07-2.593-3.07zm-34.732-5.844a1.33 1.33 0 0 1 .948-.393 1.33 1.33 0 0 1 .948.393 1.35 1.35 0 0 1 .393.948 1.33 1.33 0 0 1-1.341 1.341 1.33 1.33 0 0 1-.948-.393 1.35 1.35 0 0 1-.393-.95 1.33 1.33 0 0 1 .393-.948zm.948 5.513c1.22 0 2.366-.475 3.228-1.337s1.337-2.008 1.337-3.227-.475-2.365-1.337-3.228a4.53 4.53 0 0 0-3.228-1.337 4.53 4.53 0 0 0-3.227 1.337c-.862.862-1.337 2.008-1.337 3.227a4.53 4.53 0 0 0 1.337 3.227 4.54 4.54 0 0 0 3.227 1.337zm66.984 10.626c-.906 0-1.4.68-1.4 1.46 0 .88.352 1.435 1.4 1.435.88 0 1.4-.654 1.4-1.435 0-.88-.378-1.46-1.4-1.46zm8.45-10.294c-1.36 0-3.17.377-4.154.83v12.132c2.1 0 2.04 0 2.04-.427v-10.27c.553-.352 1.333-.478 1.887-.478 1.334 0 1.485.755 1.485 2.743v8.432c2.14 0 2.114 0 2.114-.427v-7.904c0-3.474-.328-4.63-3.373-4.63zM78.35 17.27c-.805 0-1.158.604-1.158 1.5-.025 1.183.378 1.56 1.032 1.586.755 0 1.133-.604 1.158-1.636 0-1.057-.252-1.46-1.032-1.46zM63.588 27.363c0-3.474-.327-4.63-3.372-4.63-1.36 0-3.172.377-4.153.83v12.132c2.1 0 2.04 0 2.04-.427v-10.27c.553-.352 1.334-.478 1.888-.478 1.334 0 1.485.755 1.485 2.743v8.432c2.14 0 2.114 0 2.114-.427v-7.904zm40.116 1.283c-.88.252-2.44.302-3.423.277.15-3.5 1.082-4.405 2.114-4.405 1.082 0 1.4.755 1.434 2.567 0 .478-.025 1.107-.126 1.56zm2.115-1.787c0-2.693-1.082-4.128-3.197-4.128-2.24 0-4.455.78-4.455 7.325 0 5.134 1.687 6.015 4.028 6.015 1.888 0 3.473-.604 3.473-.956 0-.554-.05-1.435-.176-1.812a6.17 6.17 0 0 1-3.07.78c-1.36 0-2.064-.453-2.14-3.5 1.207 0 3.523-.05 5.26-.403.2-.906.277-2.2.277-3.322zm-33.905 6.998c-.403.277-.932.377-1.486.377-1.183 0-1.887-.554-1.887-4.606 0-4.128 1.107-5.1 2.214-5.1.528 0 .83.075 1.158.327v9zm0-15.73v5.1c-.428-.302-1.007-.504-1.788-.504-2.164 0-3.876 2.14-3.876 7.123 0 5.462 1.712 6.217 4.103 6.217 1.56 0 2.744-.252 3.6-.755V17.194c-1.66 0-2.038 0-2.038.932zm5.304 5.915v11.654c2.064 0 2.1 0 2.1-.427V23.1c-1.66 0-2.1 0-2.1.93zm35.188 10.295c-.905 0-.905-.906-.905-1.988v-7.48h2.164c.403 0 .403-.176.403-1.762H111.5v-4.53c-1.66 0-2.038 0-2.038.705v3.825h-1.284c-.428 0-.453.202-.453 1.762h1.737v7.25c0 2.265 0 3.977 2.4 3.977.982 0 2.165-.202 2.165-.806 0-.503-.076-1.057-.152-1.334-.528.226-.755.377-1.46.377" fill="#231f20"/></svg>