<?xml version="1.0" encoding="UTF-8" standalone="no"?>
<svg
	version="1.1"
	xmlns="http://www.w3.org/2000/svg"
	viewBox="0 0 726.42224 332.39337"
>
	<title>Open Build Service logo</title>
	<g transform="matrix(2.0000857,0,0,2.0000857,-438.1392,-540.63359)">
		<g style="fill:#d1d1d1">
			<polygon points="352,431.495 352,351.495 352,347.686 352,275.305 360,286.733 360,351.486 398.301,371.71 401.084,412.447 " />
			<polygon points="321,298.733 314,286.908 314,355.288 321,353.887 " />
			<polygon points="283.018,309.644 276.018,298.215 276,362.891 283.018,361.486 " />
		</g>
		<polygon style="fill:#cecece" points="352,347.686 352,275.305 333,286.733 333,351.486 326,352.887 317,354.688 314,355.288 314,286.733 295,298.162 295,359.09 287,360.69 278,362.49 276,362.891 276,298.162 257,309.59 257,366.692 231.738,371.71 224.06,412.447 278,420.478 334.937,428.955 352,431.495 352,375.123 352,351.495 " />
		<polygon style="fill:#fff" points="295,298.162 295,359.09 276,362.891 276,298.162 257,309.59 257,366.692 231.738,371.71 224.06,412.447 352,431.495 352,351.495 352,347.686 352,275.305 333,286.733 333,351.486 314,355.288 314,286.733 " />
	</g>
	<g style="fill:#fff" transform="matrix(1.1567335,0,0,1.1698648,-45.50874,19.7431)" aria-label="Open Build Service">
		<path d="m 427.70117,52.100471 v 2.539062 q 0,13.007813 -6.75781,20.46875 -6.71875,7.460938 -17.42188,7.460938 -10.70312,0 -17.5,-7.460938 -6.79687,-7.460937 -6.79687,-20.46875 v -2.539062 q 0,-13.007813 6.75781,-20.46875 6.75781,-7.5 17.46094,-7.5 10.70312,0 17.46094,7.5 6.79687,7.460937 6.79687,20.46875 z m -11.875,2.539062 v -2.617187 q 0,-8.90625 -3.24219,-13.554688 -3.24218,-4.648437 -9.14062,-4.648437 -5.9375,0 -9.14063,4.648437 -3.20312,4.648438 -3.20312,13.554688 v 2.617187 q 0,8.867188 3.24219,13.59375 3.24218,4.6875 9.17968,4.6875 5.9375,0 9.10157,-4.6875 3.20312,-4.726562 3.20312,-13.59375 z" />
		<path d="m 457.19336,82.569221 q -6.32813,0 -10.35156,-4.492188 V 98.037971 H 435.51367 V 39.522346 h 10.50781 l 0.42969,4.101562 q 4.02344,-4.882812 10.625,-4.882812 8.04688,0 12.26563,5.898437 4.25781,5.898438 4.25781,15.546875 v 0.820313 q 0,9.21875 -4.25781,15.390625 -4.21875,6.171875 -12.14844,6.171875 z m -3.04688,-34.6875 q -5.27343,0 -7.30468,4.101562 v 17.304688 q 2.10937,4.179687 7.38281,4.179687 4.41406,0 6.25,-3.671875 1.83594,-3.671875 1.83594,-8.789062 v -0.820313 q 0,-5.234375 -1.91407,-8.75 -1.875,-3.554687 -6.25,-3.554687 z" />
		<path d="m 516.49023,74.912971 q -2.03125,2.890625 -6.17187,5.273437 -4.14063,2.382813 -10.3125,2.382813 -9.88281,0 -15.42969,-5.976563 -5.54687,-6.015625 -5.54687,-14.492187 v -1.523438 q 0,-9.570312 5.3125,-15.703125 5.35156,-6.132812 14.41406,-6.132812 9.10156,0 13.86719,5.703125 4.76562,5.703125 4.76562,15.078125 v 4.804687 h -26.91406 q 0.58594,4.101563 3.24219,6.640625 2.65625,2.5 6.99218,2.5 6.44532,0 10.19532,-4.726562 z m -17.8125,-27.070313 q -3.59375,0 -5.54687,2.421875 -1.95313,2.421875 -2.53906,6.328125 h 15.70312 v -0.859375 q -0.0781,-3.398437 -1.91406,-5.625 -1.79688,-2.265625 -5.70313,-2.265625 z" />
		<path d="m 542.03711,47.881721 q -4.80469,0 -7.14844,4.0625 v 29.84375 H 523.59961 V 39.522346 h 10.58594 l 0.39062,4.84375 q 4.53125,-5.625 12.14844,-5.625 6.01562,0 9.6875,3.59375 3.67187,3.59375 3.67187,12.539062 V 81.787971 H 548.75586 V 54.834846 q 0,-4.0625 -1.75781,-5.507813 -1.71875,-1.445312 -4.96094,-1.445312 z" />
		<path d="m 423.20898,141.51015 q 0,8.28125 -5.35156,12.53907 -5.3125,4.21875 -15.15625,4.21875 h -21.75781 v -56.875 h 19.96094 q 9.88281,0 15.46875,3.78906 5.58593,3.78906 5.58593,11.75781 0,3.86719 -1.95312,7.10938 -1.95313,3.24218 -6.17188,4.92187 5,1.25 7.1875,4.84375 2.1875,3.59375 2.1875,7.69531 z m -30.50781,-30.625 v 14.29688 h 8.20313 q 9.29687,0 9.29687,-7.03125 0,-7.26563 -9.29687,-7.26563 z m 18.78906,30.50782 q 0,-3.67188 -1.95312,-5.78125 -1.91406,-2.14844 -6.36719,-2.14844 h -10.46875 v 15.35156 h 10 q 4.49219,0 6.64063,-2.10937 2.14843,-2.10938 2.14843,-5.3125 z" />
		<path d="m 456.95898,158.26797 -0.3125,-4.33594 q -4.14062,5.11719 -11.5625,5.11719 -6.25,0 -10.15625,-3.67188 -3.86718,-3.67187 -3.86718,-12.03125 v -27.34375 h 11.28906 v 27.42188 q 0,3.51562 1.67969,5 1.67968,1.44531 4.29687,1.44531 3.08594,0 5,-1.05469 1.91406,-1.09375 2.92969,-2.96875 v -29.84375 h 11.32812 v 42.26563 z" />
		<path d="m 476.06055,105.06484 q 0,-2.53906 1.71875,-4.17969 1.71875,-1.679683 4.60937,-1.679683 2.89063,0 4.60938,1.679683 1.71875,1.64063 1.71875,4.17969 0,2.5 -1.71875,4.17969 -1.71875,1.64062 -4.60938,1.64062 -2.89062,0 -4.60937,-1.64062 -1.71875,-1.67969 -1.71875,-4.17969 z m 12.03125,10.9375 v 42.26563 h -11.32813 v -42.26563 z" />
		<path d="M 509.3418,98.267967 V 158.26797 H 498.01367 V 98.267967 Z" />
		<path d="m 544.77148,158.26797 -0.54687,-4.49219 q -1.95313,2.46094 -4.64844,3.86719 -2.65625,1.40625 -6.17187,1.40625 -7.85157,0 -12.1875,-6.09375 -4.33594,-6.09375 -4.33594,-15.3125 v -0.82032 q 0,-9.64843 4.33594,-15.625 4.33593,-5.97656 12.26562,-5.97656 6.17188,0 10.15625,4.57031 V 98.267967 h 11.32813 v 60.000003 z m -16.5625,-20.625 q 0,5.07812 1.79688,8.67187 1.79687,3.55469 6.25,3.55469 5.15625,0 7.38281,-4.375 v -16.75781 q -2.14844,-4.375 -7.30469,-4.375 -4.41406,0 -6.28906,3.63281 -1.83594,3.59375 -1.83594,8.82812 z" />
		<path d="m 410.47461,219.82609 q 0,-2.96875 -2.10938,-4.88282 -2.10937,-1.91406 -9.02343,-4.10156 -7.77344,-2.5 -13.39844,-6.48437 -5.625,-3.98438 -5.625,-11.36719 0,-7.14844 5.89844,-11.52344 5.89843,-4.375 15.11718,-4.375 9.45313,0 15.15625,4.96094 5.70313,4.92187 5.70313,12.57812 h -11.71875 q 0,-3.59375 -2.30469,-5.89843 -2.30469,-2.30469 -7.03125,-2.30469 -4.60937,0 -6.875,1.95312 -2.22656,1.91407 -2.22656,4.64844 0,2.8125 2.89062,4.6875 2.89063,1.875 8.39844,3.55469 9.33594,2.85156 14.10156,7.14844 4.80469,4.29687 4.80469,11.32812 0,7.46094 -5.625,11.64063 -5.625,4.14062 -15,4.14062 -5.66406,0 -10.9375,-1.99219 -5.27344,-1.99218 -8.67187,-6.13281 -3.39844,-4.14062 -3.39844,-10.58594 h 11.75781 q 0,5.19532 3.08594,7.30469 3.125,2.10938 8.16406,2.10938 4.53125,0 6.67969,-1.83594 2.1875,-1.83594 2.1875,-4.57031 z" />
		<path d="m 465.39648,227.87296 q -2.03125,2.89063 -6.17187,5.27344 -4.14063,2.38281 -10.3125,2.38281 -9.88281,0 -15.42969,-5.97656 -5.54687,-6.01563 -5.54687,-14.49219 v -1.52344 q 0,-9.57031 5.3125,-15.70312 5.35156,-6.13281 14.41406,-6.13281 9.10156,0 13.86719,5.70312 4.76562,5.70313 4.76562,15.07813 v 4.80468 h -26.91406 q 0.58594,4.10157 3.24219,6.64063 2.65625,2.5 6.99218,2.5 6.44532,0 10.19532,-4.72656 z m -17.8125,-27.07031 q -3.59375,0 -5.54687,2.42187 -1.95313,2.42188 -2.53906,6.32813 h 15.70312 v -0.85938 q -0.0781,-3.39843 -1.91406,-5.625 -1.79688,-2.26562 -5.70313,-2.26562 z" />
		<path d="m 492.38867,202.71671 q -6.36719,0 -8.35937,4.33594 v 27.69531 h -11.32813 v -42.26562 h 10.66406 l 0.35157,5.03906 q 3.32031,-5.82031 9.41406,-5.82031 2.14844,0 3.47656,0.50781 l -0.11719,10.82031 q -0.85937,-0.0781 -2.03125,-0.19531 -1.13281,-0.11719 -2.07031,-0.11719 z" />
		<path d="m 538.48242,192.48234 -14.25781,42.26562 h -10.74219 l -14.29687,-42.26562 h 11.83593 l 7.85157,28.39843 7.8125,-28.39843 z" />
		<path d="m 543.4043,181.54484 q 0,-2.53907 1.71875,-4.17969 1.71875,-1.67969 4.60937,-1.67969 2.89063,0 4.60938,1.67969 1.71875,1.64062 1.71875,4.17969 0,2.5 -1.71875,4.17968 -1.71875,1.64063 -4.60938,1.64063 -2.89062,0 -4.60937,-1.64063 -1.71875,-1.67968 -1.71875,-4.17968 z m 12.03125,10.9375 v 42.26562 h -11.32813 v -42.26562 z" />
		<path d="m 582.31055,226.42765 q 3.08593,0 5.07812,-1.67969 1.99219,-1.71875 2.03125,-4.60937 h 10.625 q -0.0781,6.71875 -5.15625,11.05468 -5.03906,4.33594 -12.38281,4.33594 -9.80469,0 -14.6875,-6.17187 -4.84375,-6.21094 -4.84375,-15.19532 v -1.09375 q 0,-8.94531 4.84375,-15.15625 4.84375,-6.21093 14.64844,-6.21093 7.77343,0 12.61718,4.45312 4.88282,4.45313 4.96094,12.07031 h -10.625 q -0.0391,-3.08593 -1.875,-5.23437 -1.83594,-2.1875 -5.27344,-2.1875 -4.96093,0 -6.48437,3.78906 -1.48438,3.75 -1.48438,8.47656 v 1.09375 q 0,4.88282 1.48438,8.59375 1.52344,3.67188 6.52344,3.67188 z" />
		<path d="m 642.42773,227.87296 q -2.03125,2.89063 -6.17187,5.27344 -4.14063,2.38281 -10.3125,2.38281 -9.88281,0 -15.42969,-5.97656 -5.54687,-6.01563 -5.54687,-14.49219 v -1.52344 q 0,-9.57031 5.3125,-15.70312 5.35156,-6.13281 14.41406,-6.13281 9.10156,0 13.86719,5.70312 4.76562,5.70313 4.76562,15.07813 v 4.80468 h -26.91406 q 0.58594,4.10157 3.24219,6.64063 2.65625,2.5 6.99218,2.5 6.44532,0 10.19532,-4.72656 z m -17.8125,-27.07031 q -3.59375,0 -5.54687,2.42187 -1.95313,2.42188 -2.53906,6.32813 h 15.70312 v -0.85938 q -0.0781,-3.39843 -1.91406,-5.625 -1.79688,-2.26562 -5.70313,-2.26562 z" />
	</g>
</svg>
