/* XPM */
static char * nut_monitor_xpm[] = {
"32 32 291 2",
"  	c None",
". 	c #C7A509",
"+ 	c #D0B123",
"@ 	c #CEAF21",
"# 	c #CBAB15",
"$ 	c #C5A305",
"% 	c #C4A100",
"& 	c #CAAB1A",
"* 	c #E0C74E",
"= 	c #E0C949",
"- 	c #ECDA6F",
"; 	c #FCF6C6",
"> 	c #FDF7B5",
", 	c #E8D663",
"' 	c #CEAF0E",
") 	c #CAA915",
"! 	c #DFC858",
"~ 	c #D1B42E",
"{ 	c #C29E00",
"] 	c #D6BB34",
"^ 	c #FBEE92",
"/ 	c #FFF792",
"( 	c #FEF07A",
"_ 	c #F9E857",
": 	c #F6E558",
"< 	c #F5E55D",
"[ 	c #EED500",
"} 	c #D7B800",
"| 	c #CCAB00",
"1 	c #CAA80A",
"2 	c #EFDA59",
"3 	c #EFDC69",
"4 	c #F0E289",
"5 	c #DBC350",
"6 	c #C8A714",
"7 	c #BE9700",
"8 	c #FFFEAA",
"9 	c #FCE955",
"0 	c #FCED74",
"a 	c #FCF194",
"b 	c #FDF4AD",
"c 	c #F5E565",
"d 	c #EFD91D",
"e 	c #E6CA00",
"f 	c #D2B000",
"g 	c #D0B226",
"h 	c #EAD65F",
"i 	c #EDD852",
"j 	c #E9D037",
"k 	c #E6CC2E",
"l 	c #ECD856",
"m 	c #CDAF23",
"n 	c #BD9500",
"o 	c #FFFFD2",
"p 	c #FCED72",
"q 	c #FCEE7A",
"r 	c #FDF087",
"s 	c #FDF195",
"t 	c #FDF4AB",
"u 	c #FEF8C2",
"v 	c #FEF9C0",
"w 	c #FEF5AA",
"x 	c #FBEE8A",
"y 	c #F4E269",
"z 	c #F4E058",
"A 	c #F0DA49",
"B 	c #EDD851",
"C 	c #EBD96F",
"D 	c #CCAD23",
"E 	c #BC9400",
"F 	c #FFFFD9",
"G 	c #FDF5B0",
"H 	c #FDFAD9",
"I 	c #FDF9D4",
"J 	c #FEF9D8",
"K 	c #FEFBE3",
"L 	c #FFFDEA",
"M 	c #FFFCE4",
"N 	c #FEFAD4",
"O 	c #FBF3B8",
"P 	c #F5E99B",
"Q 	c #EBDA75",
"R 	c #E0CA52",
"S 	c #D8C03D",
"T 	c #D6BE48",
"U 	c #CCAC21",
"V 	c #FFFFD6",
"W 	c #FDF3A5",
"X 	c #FDF9D0",
"Y 	c #FCF4B9",
"Z 	c #F9F2AB",
"` 	c #F5E561",
" .	c #F1DE3B",
"..	c #EFD91C",
"+.	c #E8CF1B",
"@.	c #E0C61C",
"#.	c #DBC01E",
"$.	c #D9BD21",
"%.	c #D6BA26",
"&.	c #D5B729",
"*.	c #D7BD43",
"=.	c #FFFFD4",
"-.	c #FCF3A2",
";.	c #FDF9CE",
">.	c #FBF4B9",
",.	c #FAF2AA",
"'.	c #F5E86D",
").	c #F3E14B",
"!.	c #F0DC2D",
"~.	c #EAD329",
"{.	c #E1C927",
"].	c #DCC224",
"^.	c #D9BD23",
"/.	c #D5B921",
"(.	c #D2B522",
"_.	c #D3BA3E",
":.	c #CBAC22",
"<.	c #A68E1A",
"[.	c #FFFCD8",
"}.	c #FCF2A0",
"|.	c #FEF8C9",
"1.	c #FCF4B1",
"2.	c #FAF1A2",
"3.	c #F5E666",
"4.	c #F2E045",
"5.	c #F0DB28",
"6.	c #E8D123",
"7.	c #E1C720",
"8.	c #DCC01D",
"9.	c #D9BC1A",
"0.	c #D7B916",
"a.	c #D3B41A",
"b.	c #C8B140",
"c.	c #B6A34A",
"d.	c #777B7D",
"e.	c #EFF0ED",
"f.	c #DCDECF",
"g.	c #F0EEDC",
"h.	c #F2ECC0",
"i.	c #F4EDA6",
"j.	c #F2E568",
"k.	c #F2DF3E",
"l.	c #F4DD12",
"m.	c #EBD118",
"n.	c #DDC420",
"o.	c #D1BA27",
"p.	c #C0AD37",
"q.	c #A5994E",
"r.	c #898464",
"s.	c #7F8077",
"t.	c #8F9396",
"u.	c #72746E",
"v.	c #D8DAD4",
"w.	c #E7E8E5",
"x.	c #E0E2E1",
"y.	c #DBDDDE",
"z.	c #CACDD3",
"A.	c #C2C6CD",
"B.	c #B7BBC8",
"C.	c #A9AFB8",
"D.	c #9CA0A7",
"E.	c #8E9396",
"F.	c #848888",
"G.	c #7E7F7B",
"H.	c #76786F",
"I.	c #7B7C77",
"J.	c #8C8E8A",
"K.	c #676965",
"L.	c #EFF1EE",
"M.	c #D6D9D4",
"N.	c #E4E5E3",
"O.	c #DFE0DC",
"P.	c #D9DCD7",
"Q.	c #CCCEC8",
"R.	c #C4C7BF",
"S.	c #BABDB5",
"T.	c #ADAFA7",
"U.	c #9FA199",
"V.	c #91938B",
"W.	c #84877F",
"X.	c #7B7D76",
"Y.	c #71736E",
"Z.	c #787975",
"`.	c #858783",
" +	c #5F615C",
".+	c #EFF0EE",
"++	c #D5D8D3",
"@+	c #E3E5E1",
"#+	c #DCDDDA",
"$+	c #D6D9D5",
"%+	c #C9CCC7",
"&+	c #C2C5BE",
"*+	c #B8BBB4",
"=+	c #ABAEA6",
"-+	c #9C9F97",
";+	c #8E9089",
">+	c #81847D",
",+	c #787A74",
"'+	c #6E716B",
")+	c #757772",
"!+	c #7E807C",
"~+	c #555752",
"{+	c #D5D7D3",
"]+	c #E0E2DE",
"^+	c #DADBD8",
"/+	c #D4D6D1",
"(+	c #C8CAC5",
"_+	c #C1C4BD",
":+	c #B6B9B3",
"<+	c #A9ACA4",
"[+	c #999C95",
"}+	c #8A8D85",
"|+	c #7F827B",
"1+	c #767771",
"2+	c #6D6F6A",
"3+	c #757773",
"4+	c #777975",
"5+	c #4B4E49",
"6+	c #F0F2EE",
"7+	c #D3D6D1",
"8+	c #DEE0DE",
"9+	c #D8D9D6",
"0+	c #D1D3CF",
"a+	c #C6C8C3",
"b+	c #BFC2BB",
"c+	c #B5B8B1",
"d+	c #A6A9A2",
"e+	c #989B93",
"f+	c #767773",
"g+	c #70726F",
"h+	c #434540",
"i+	c #D2D5D0",
"j+	c #DCDDDB",
"k+	c #D4D6D2",
"l+	c #CED0CB",
"m+	c #C5C7C2",
"n+	c #BEC1BA",
"o+	c #B4B7B0",
"p+	c #A7AAA2",
"q+	c #767874",
"r+	c #6A6C68",
"s+	c #424440",
"t+	c #EFF1ED",
"u+	c #D1D4CF",
"v+	c #DADCD8",
"w+	c #D3D5D0",
"x+	c #CCCFC9",
"y+	c #C4C7C1",
"z+	c #6A6B68",
"A+	c #41433F",
"B+	c #EDEFEC",
"C+	c #D2D5CF",
"D+	c #D9DAD7",
"E+	c #D2D4CF",
"F+	c #CBCEC8",
"G+	c #D7D9D5",
"H+	c #D1D3CE",
"I+	c #CBCDC8",
"J+	c #8A8C85",
"K+	c #7D8079",
"L+	c #696B65",
"M+	c #7F807C",
"N+	c #6A6C69",
"O+	c #81827E",
"P+	c #DEE0DD",
"Q+	c #F1F2EF",
"R+	c #DEE0DC",
"S+	c #CFD2CC",
"T+	c #C3C6C0",
"U+	c #BBBEB7",
"V+	c #ADB0A9",
"W+	c #A2A59D",
"X+	c #979A92",
"Y+	c #8F928A",
"Z+	c #92948F",
"`+	c #9D9E99",
" @	c #A9AAA6",
".@	c #868784",
"+@	c #4B4D49",
"@@	c #5E605B",
"#@	c #959794",
"$@	c #AEAFAC",
"%@	c #B6B8B5",
"&@	c #BABCB8",
"*@	c #BDBEBB",
"=@	c #B4B6B2",
"-@	c #AAABA7",
";@	c #9E9F9B",
">@	c #888986",
",@	c #686A66",
"'@	c #454743",
"                                                                ",
"                                                                ",
"                                                                ",
"                                                                ",
"                                                                ",
"                                                                ",
"                          . + @ # $                             ",
"                  % & * = - ; > , ' ) ! ~ {                     ",
"                ] ^ / ( _ : < [ } | 1 2 3 4 5 6                 ",
"              7 8 9 0 a b c d e f g h i j k l m                 ",
"              n o p q r s t u v w x y z A B C D                 ",
"              E F G H I J K L M N O P Q R S T U                 ",
"              E V W X Y Z `  ...+.@.#.$.%.&.*.U                 ",
"              E =.-.;.>.,.'.).!.~.{.].^./.(._.:.                ",
"              <.[.}.|.1.2.3.4.5.6.7.8.9.0.a.b.c.                ",
"              d.e.f.g.h.i.j.k.l.m.n.o.p.q.r.s.t.                ",
"              u.e.v.w.x.y.z.A.B.C.D.E.F.G.H.I.J.                ",
"              K.L.M.N.O.P.Q.R.S.T.U.V.W.X.Y.Z.`.                ",
"               +.+++@+#+$+%+&+*+=+-+;+>+,+'+)+!+                ",
"              ~+.+{+]+^+/+(+_+:+<+[+}+|+1+2+3+4+                ",
"              5+6+7+8+9+0+a+b+c+d+e+}+|+1+2+f+g+                ",
"              h+6+i+j+k+l+m+n+o+p+e+}+|+1+2+q+r+                ",
"              s+t+u+v+w+x+y+n+o+p+e+}+|+1+2+q+z+                ",
"              A+B+C+D+E+F+y+n+o+p+e+}+|+1+2+4+z+                ",
"              s+6+7+G+H+I+y+n+c+p+e+J+K+u.L+M+N+                ",
"                O+P+Q+R+S+T+U+V+W+X+Y+Z+`+ @.@+@                ",
"                  A+@@#@$@%@&@*@=@-@;@>@,@'@                    ",
"                                                                ",
"                                                                ",
"                                                                ",
"                                                                ",
"                                                                "};
